<svg width="48" height="48" viewBox="0 0 48 48" fill="none" xmlns="http://www.w3.org/2000/svg">
<path d="M24.0001 11.9669C34.1597 11.9669 42.4001 20.1464 42.4001 30.2298V30.8086C42.4001 36.9928 37.3431 42.004 31.1286 42.004H16.8716C10.6418 42.004 5.6001 36.9775 5.6001 30.8086V30.2298C5.6001 20.1464 13.8405 11.9669 24.0001 11.9669Z" fill="#6DB55C"/>
<path d="M17.9381 12.9569H30.0626L32.9719 8.76819C33.901 7.42779 32.9414 5.59998 31.2964 5.59998H16.6891C15.0441 5.59998 14.0845 7.42779 15.0136 8.76819L17.9229 12.9569H17.9381Z" fill="#3B9353"/>
<path fill-rule="evenodd" clip-rule="evenodd" d="M17.805 23.459C17.5304 22.7599 16.7411 22.4157 16.042 22.6903C15.3429 22.9649 14.9987 23.7543 15.2733 24.4534L15.9827 26.2594H14.3883C13.6372 26.2594 13.0283 26.8683 13.0283 27.6194C13.0283 28.3705 13.6372 28.9794 14.3883 28.9794H17.051L18.3811 32.3656C18.6835 33.1424 19.4013 33.6214 20.1856 33.6214C20.9703 33.6214 21.6884 33.1418 21.9906 32.3642L21.9916 32.3617L24 27.2236L26.0084 32.3617L26.0094 32.3641C26.3115 33.1418 27.0296 33.6214 27.8144 33.6214C28.5986 33.6214 29.3162 33.1425 29.6188 32.3659L29.6204 32.3617L30.949 28.9793H33.6117C34.3628 28.9793 34.9717 28.3704 34.9717 27.6193C34.9717 26.8682 34.3628 26.2593 33.6117 26.2593H32.0173L32.7267 24.4534C33.0013 23.7543 32.6571 22.9649 31.958 22.6903C31.2589 22.4157 30.4696 22.7599 30.195 23.459L27.8162 29.5152L25.806 24.3726L25.805 24.3701C25.5029 23.5925 24.7847 23.1129 24 23.1129C23.2153 23.1129 22.4972 23.5924 22.195 24.37L22.194 24.3726L20.1838 29.5152L17.805 23.459Z" fill="white"/>
</svg>
