<svg width="48" height="48" viewBox="0 0 48 48" fill="none" xmlns="http://www.w3.org/2000/svg">
<path d="M23.9984 4.7998C22.7342 4.7998 21.7127 5.8998 21.7127 7.26134V8.73827C16.4985 9.87673 12.57 14.846 12.57 20.7998V22.246C12.57 25.8613 11.3343 29.3537 9.10576 32.0613L8.5772 32.6998C7.9772 33.4229 7.83435 34.4613 8.19863 35.346C8.56291 36.2306 9.38433 36.7998 10.2843 36.7998H37.7125C38.6125 36.7998 39.4268 36.2306 39.7982 35.346C40.1696 34.4613 40.0196 33.4229 39.4197 32.6998L38.8911 32.0613C36.6625 29.3537 35.4268 25.869 35.4268 22.246V20.7998C35.4268 14.846 31.4983 9.87673 26.2841 8.73827V7.26134C26.2841 5.8998 25.2627 4.7998 23.9984 4.7998Z" fill="#F4C277"/>
<path d="M28.8002 38.3999C28.8002 39.6749 28.2977 40.8974 27.3977 41.7974C26.4977 42.6974 25.2752 43.1999 24.0002 43.1999C22.7252 43.1999 21.5027 42.6974 20.6027 41.7974C19.7027 40.8974 19.2002 39.6749 19.2002 38.3999H28.8002Z" fill="#E58A4C"/>
<path d="M14.1494 6.54541C11.7538 7.51687 9.68103 9.50929 8.52382 12.2942C7.36661 15.0792 7.31669 18.123 8.18888 20.7929" stroke="#F2B25F" stroke-width="2.2" stroke-linecap="round" stroke-linejoin="round"/>
<path d="M34.3706 6.54541C36.7662 7.51687 38.839 9.50929 39.9962 12.2942C41.1534 15.0792 41.2033 18.123 40.3311 20.7929" stroke="#F2B25F" stroke-width="2.2" stroke-linecap="round" stroke-linejoin="round"/>
</svg>
