<svg width="48" height="48" viewBox="0 0 48 48" fill="none" xmlns="http://www.w3.org/2000/svg">
<g clip-path="url(#clip0_562_11330)">
<rect x="3.2002" y="3.2002" width="41.6" height="41.6" rx="20.8" fill="#436FC6"/>
<ellipse cx="24.0004" cy="20.8002" rx="9.6" ry="9.6" fill="#8DD1F1"/>
<path d="M24.0068 25.9123C22.1696 25.9123 20.4669 24.8929 19.5819 23.2574C19.3242 22.7757 19.5035 22.1819 19.974 21.9243C20.4445 21.6666 21.0494 21.8459 21.307 22.3164C21.856 23.3246 22.8866 23.9407 24.0068 23.9407C25.1271 23.9407 26.1577 23.3134 26.6954 22.3164C26.9531 21.8347 27.5468 21.6554 28.0285 21.9131C28.5102 22.1707 28.6782 22.7645 28.4318 23.2462C27.5468 24.8817 25.8552 25.9011 24.0068 25.9011V25.9123Z" fill="#436FC6"/>
<path d="M20.6005 20.4007C21.3735 20.4007 22.0008 19.7734 22.0008 19.0004C22.0008 18.2274 21.3735 17.6001 20.6005 17.6001C19.8275 17.6001 19.2002 18.2274 19.2002 19.0004C19.2002 19.7734 19.8275 20.4007 20.6005 20.4007Z" fill="#436FC6"/>
<path d="M27.4003 20.4007C28.1733 20.4007 28.8006 19.7734 28.8006 19.0004C28.8006 18.2274 28.1733 17.6001 27.4003 17.6001C26.6273 17.6001 26 18.2274 26 19.0004C26 19.7734 26.6273 20.4007 27.4003 20.4007Z" fill="#436FC6"/>
<path d="M8 46.4C8 38.4471 13.2098 32 19.6364 32H28.3636C34.7902 32 40 38.4471 40 46.4H8Z" fill="#8DD1F1"/>
</g>
<defs>
<clipPath id="clip0_562_11330">
<rect x="3.2002" y="3.2002" width="41.6" height="41.6" rx="20.8" fill="white"/>
</clipPath>
</defs>
</svg>
