<svg width="48" height="48" viewBox="0 0 48 48" fill="none" xmlns="http://www.w3.org/2000/svg">
<path opacity="0.4" d="M4.7998 11.2942C4.7998 10.3586 5.51615 9.6001 6.3998 9.6001H41.5998C42.4835 9.6001 43.1998 10.3586 43.1998 11.2942V38.4001H4.7998V11.2942Z" fill="#69B9DE"/>
<path fill-rule="evenodd" clip-rule="evenodd" d="M7.1998 12.0001V36.0001H40.7998V12.0001H7.1998ZM6.3998 9.6001C5.51615 9.6001 4.7998 10.3586 4.7998 11.2942V38.4001H43.1998V11.2942C43.1998 10.3586 42.4835 9.6001 41.5998 9.6001H6.3998Z" fill="#436FC6"/>
<circle cx="24.0005" cy="22.2022" r="4.60207" fill="#436FC6"/>
<path d="M14.7959 35.2003C14.7959 31.5033 17.7929 28.5063 21.4898 28.5063H26.5103C30.2072 28.5063 33.2042 31.5033 33.2042 35.2003H14.7959Z" fill="#436FC6"/>
<path d="M1.59961 36.8002C1.59961 35.9165 2.31595 35.2002 3.19961 35.2002H44.7996C45.6833 35.2002 46.3996 35.9165 46.3996 36.8002C46.3996 37.6839 45.6833 38.4002 44.7996 38.4002H3.19961C2.31595 38.4002 1.59961 37.6839 1.59961 36.8002Z" fill="#436FC6"/>
</svg>
