<svg width="48" height="48" viewBox="0 0 48 48" fill="none" xmlns="http://www.w3.org/2000/svg">
<path d="M11.2866 46.5732C17.5201 46.5732 22.5732 41.52 22.5732 35.2866C22.5732 29.0532 17.5201 24 11.2866 24C5.05319 24 0 29.0532 0 35.2866C0 41.52 5.05319 46.5732 11.2866 46.5732Z" fill="#82C7F1"/>
<path d="M11.2869 40.2363C9.52089 40.2363 7.88407 39.2564 7.03335 37.6841C6.78568 37.2211 6.95797 36.6504 7.41025 36.4027C7.86253 36.155 8.44404 36.3273 8.69171 36.7796C9.21937 37.7488 10.2101 38.341 11.2869 38.341C12.3638 38.341 13.3545 37.738 13.8714 36.7796C14.1191 36.3165 14.6898 36.1442 15.1529 36.3919C15.6159 36.6396 15.7774 37.2103 15.5405 37.6734C14.6898 39.2456 13.0637 40.2255 11.2869 40.2255V40.2363Z" fill="#0052CC"/>
<path d="M8.01257 34.9382C8.7556 34.9382 9.35864 34.3352 9.35864 33.5922C9.35864 32.8491 8.7556 32.2461 8.01257 32.2461C7.26954 32.2461 6.6665 32.8491 6.6665 33.5922C6.6665 34.3352 7.26954 34.9382 8.01257 34.9382Z" fill="#0052CC"/>
<path d="M14.5487 34.9382C15.2917 34.9382 15.8948 34.3352 15.8948 33.5922C15.8948 32.8491 15.2917 32.2461 14.5487 32.2461C13.8057 32.2461 13.2026 32.8491 13.2026 33.5922C13.2026 34.3352 13.8057 34.9382 14.5487 34.9382Z" fill="#0052CC"/>
<path d="M29.2011 36.4414C39.4257 36.4414 47.7006 28.8728 47.7006 19.554C47.7006 10.2352 39.4104 2.6665 29.2011 2.6665C18.9919 2.6665 10.7017 10.2352 10.7017 19.554C10.7017 28.8728 18.9919 36.4414 29.2011 36.4414Z" fill="#0052CC"/>
<path d="M27.941 32.3421L17.1177 26.0938V35.5968C17.1177 36.9324 18.5608 37.7615 19.7122 37.1013L27.941 32.3421Z" fill="#0052CC"/>
<path d="M22.1245 21.3965C23.142 21.3965 23.9668 20.5716 23.9668 19.5542C23.9668 18.5367 23.142 17.7119 22.1245 17.7119C21.107 17.7119 20.2822 18.5367 20.2822 19.5542C20.2822 20.5716 21.107 21.3965 22.1245 21.3965Z" fill="white"/>
<path d="M29.2007 21.3965C30.2181 21.3965 31.0429 20.5716 31.0429 19.5542C31.0429 18.5367 30.2181 17.7119 29.2007 17.7119C28.1832 17.7119 27.3584 18.5367 27.3584 19.5542C27.3584 20.5716 28.1832 21.3965 29.2007 21.3965Z" fill="white"/>
<path d="M36.2632 21.3965C37.2806 21.3965 38.1054 20.5716 38.1054 19.5542C38.1054 18.5367 37.2806 17.7119 36.2632 17.7119C35.2457 17.7119 34.4209 18.5367 34.4209 19.5542C34.4209 20.5716 35.2457 21.3965 36.2632 21.3965Z" fill="white"/>
</svg>
