<svg width="48" height="48" viewBox="0 0 48 48" fill="none" xmlns="http://www.w3.org/2000/svg">
<path d="M11.6367 30.9584C11.8049 30.6165 12.1529 30.3999 12.5339 30.3999H35.4668C35.8479 30.3999 36.1958 30.6165 36.3641 30.9584L40.8911 40.1584C41.2181 40.8229 40.7344 41.5999 39.9938 41.5999H8.00696C7.26636 41.5999 6.78272 40.8229 7.1097 40.1584L11.6367 30.9584Z" fill="#F2B1C3"/>
<path fill-rule="evenodd" clip-rule="evenodd" d="M24 36.7998C24 36.7998 36.1905 24.6691 36.1905 17.5998C36.1905 10.5306 30.7327 4.7998 24 4.7998C17.2674 4.7998 11.8096 10.5306 11.8096 17.5998C11.8096 24.6691 24 36.7998 24 36.7998ZM24 21.5617C26.5248 21.5617 28.5715 19.515 28.5715 16.9903C28.5715 14.4656 26.5248 12.4189 24 12.4189C21.4753 12.4189 19.4286 14.4656 19.4286 16.9903C19.4286 19.515 21.4753 21.5617 24 21.5617Z" fill="#F85469"/>
</svg>
