<svg width="286" height="48" viewBox="0 0 286 48" fill="none" xmlns="http://www.w3.org/2000/svg">
<path d="M282.647 36.764V36.814H282.697H284.42H284.47V36.764V28.7419V28.6919H284.42H282.697H282.647V28.7419V32.0234H280.111H280.061V32.0734V33.4326V33.4826H280.111H282.647V36.764ZM280.26 34.6045L280.255 34.5512L280.202 34.56C278.429 34.8556 276.916 34.9067 274.493 34.9074V33.6151H279.133H279.183V33.5651V32.2723V32.2223H279.133H274.493V31.0295H279.564H279.614V30.9795V29.637V29.587H279.564H272.735H272.685V29.637V36.3V36.35H272.735H273.862C276.696 36.35 278.374 36.3335 280.351 36.0178L280.397 36.0104L280.393 35.9636L280.26 34.6045ZM284.968 42.2668V42.2168H284.918H276.432V41.1069H284.42H284.47V41.0569V37.3773V37.3273H284.42H274.675H274.625V37.3773V38.7033V38.7533H274.675H282.68V39.7803H274.691H274.641V39.8303V43.5928V43.6428H274.691H284.918H284.968V43.5928V42.2668Z" fill="#002169" stroke="#002169" stroke-width="0.1"/>
<path d="M270.898 40.5427V40.4927H270.848H264.915V37.5098H269.605H269.655V37.4598V36.0841V36.0341H269.605H267.484V31.5264H269.638H269.688V31.4764V30.1007V30.0507H269.638H258.384H258.334V30.1007V31.4764V31.5264H258.384H260.538V36.0341H258.434H258.384V36.0841V37.4598V37.5098H258.434H263.107V40.4927H257.257H257.207V40.5427V41.9515V42.0015H257.257H270.848H270.898V41.9515V40.5427ZM265.693 36.0341H262.346V31.5264H265.693V36.0341Z" fill="#002169" stroke="#002169" stroke-width="0.1"/>
<path d="M256.047 37.2947H256.097V37.2447V35.869V35.819H256.047H242.489H242.439V35.869V37.2447V37.2947H242.489H245.854V38.8356H244.014H243.964V38.8856V40.2447V40.2947H244.014H252.633V43.7253V43.7753H252.683H254.39H254.44V43.7253V38.8856V38.8356H254.39H252.683V37.2947H256.047ZM245.755 31.9905C245.755 31.5129 246.07 31.133 246.676 30.87C247.282 30.6066 248.169 30.4659 249.285 30.4659C250.392 30.4659 251.275 30.6066 251.88 30.8699C252.483 31.133 252.798 31.5128 252.798 31.9905C252.798 32.4596 252.484 32.8354 251.88 33.0966C251.275 33.3579 250.392 33.4985 249.285 33.4985C248.169 33.4985 247.282 33.3579 246.675 33.0965C246.069 32.8354 245.755 32.4595 245.755 31.9905ZM243.898 31.9905C243.898 32.9169 244.43 33.6568 245.368 34.1623C246.304 34.667 247.648 34.9411 249.285 34.9411C250.914 34.9411 252.257 34.667 253.195 34.1623C254.135 33.6569 254.672 32.9171 254.672 31.9905C254.672 31.064 254.135 30.3242 253.195 29.8187C252.257 29.3141 250.914 29.04 249.285 29.04C247.648 29.04 246.304 29.3141 245.368 29.8188C244.43 30.3243 243.898 31.0641 243.898 31.9905ZM247.661 37.2947H250.876V38.8356H247.661V37.2947Z" fill="#002169" stroke="#002169" stroke-width="0.1"/>
<path d="M238.132 31.5928V31.7251C238.132 33.5478 238.132 35.5659 237.603 38.2957L237.593 38.3487L237.646 38.3549L239.353 38.5538L239.4 38.5592L239.408 38.5131C239.939 35.6081 239.939 33.5989 239.939 31.7254V31.7251V30.1506V30.1006H239.889H229.116H229.066V30.1506V31.5428V31.5928H229.116H238.132ZM241.348 40.3605V40.3105H241.298H236.326V35.5207V35.4707H236.276H234.586H234.536V35.5207V40.3105H232.63V35.5207V35.4707H232.58H230.889H230.839V35.5207V40.3105H227.773H227.723V40.3605V41.7693V41.8193H227.773H241.298H241.348V41.7693V40.3605Z" fill="#002169" stroke="#002169" stroke-width="0.1"/>
<path d="M226.547 37.0627H226.597V37.0127V35.637V35.587H226.547H213.006H212.956V35.637V37.0127V37.0627H213.006H216.204V38.8862C215.151 39.3558 214.547 40.0945 214.547 41.0403C214.547 41.9253 215.047 42.6157 215.946 43.0819C216.842 43.5471 218.14 43.7919 219.752 43.7919C221.372 43.7919 222.669 43.5471 223.564 43.0819C224.461 42.6155 224.956 41.9252 224.956 41.0403C224.956 40.1123 224.403 39.3897 223.382 38.9197V37.0627H226.547ZM216.255 31.8745C216.255 31.4148 216.572 31.0511 217.181 30.7999C217.79 30.5487 218.677 30.4162 219.785 30.4162C220.893 30.4162 221.776 30.5487 222.38 30.7998C222.985 31.051 223.298 31.4145 223.298 31.8745C223.298 32.3261 222.985 32.6898 222.38 32.9431C221.776 33.1963 220.892 33.3328 219.785 33.3328C218.677 33.3328 217.79 33.1963 217.181 32.943C216.572 32.6896 216.255 32.3258 216.255 31.8745ZM214.398 31.8745C214.398 32.7767 214.927 33.4957 215.862 33.9865C216.796 34.4765 218.14 34.7422 219.785 34.7422C221.422 34.7422 222.765 34.4765 223.701 33.9865C224.638 33.4958 225.172 32.7768 225.172 31.8745C225.172 30.9641 224.639 30.241 223.701 29.7481C222.765 29.256 221.422 28.9903 219.785 28.9903C218.14 28.9903 216.796 29.256 215.862 29.7481C214.927 30.2411 214.398 30.9643 214.398 31.8745ZM217.995 37.0627H221.591V38.4135C221.04 38.3352 220.427 38.2886 219.752 38.2886C219.125 38.2886 218.53 38.3351 217.995 38.4132V37.0627ZM223.133 41.0403C223.133 41.4666 222.844 41.7971 222.269 42.0234C221.694 42.25 220.843 42.366 219.752 42.366C218.66 42.366 217.814 42.25 217.243 42.0235C216.672 41.7973 216.387 41.4669 216.387 41.0403C216.387 40.6221 216.672 40.2916 217.243 40.0632C217.814 39.8347 218.66 39.7146 219.752 39.7146C220.843 39.7146 221.694 39.8347 222.269 40.0633C222.845 40.2918 223.133 40.6225 223.133 41.0403Z" fill="#002169" stroke="#002169" stroke-width="0.1"/>
<path d="M199.863 43.5426V43.5926H199.913H210.14H210.19V43.5426V38.1393V38.0893H210.14H199.913H199.863V38.1393V43.5426ZM211.88 34.9404V34.8904H211.83H209.82C210.19 33.1257 210.19 31.8121 210.19 30.6481V30.6476V29.4874V29.4374H210.14H199.98H199.93V29.4874V30.8796V30.9296H199.98H208.416C208.415 32.0335 208.378 33.2656 208.012 34.8904H198.272H198.222V34.9404V36.3327V36.3827H198.272H211.83H211.88V36.3327V34.9404ZM208.416 42.1335H201.637V39.5484H208.416V42.1335Z" fill="#002169" stroke="#002169" stroke-width="0.1"/>
<path d="M15.5976 12.8294H11.2744L15.5942 20.0981V20.0932L20.4336 12.8294H15.5976Z" fill="#002169"/>
<path d="M30.4877 21.4445V27.9742H23.9576L15.5957 36.5923H39.1043V12.8294L30.4877 21.4445Z" fill="#52B9E9"/>
<path d="M15.5957 20.1012L23.9576 27.9741V21.4445H30.4877L20.4351 12.8294L15.5957 20.0932V20.1012Z" fill="#F38AA5"/>
<path d="M20.4336 0H11.2744V12.8295H20.4336V0Z" fill="#3CB14A"/>
<path d="M1 21.4445L6.30697 27.8884L15.5941 20.0981L11.2743 12.8294L1 21.4445Z" fill="#DC1351"/>
<path d="M30.4861 21.4446H23.9561V27.9743H30.4861V21.4446Z" fill="white"/>
<path d="M20.4336 12.8294L30.4862 21.4445L39.1027 12.8294H20.4336Z" fill="#002169"/>
<path d="M15.5957 20.1011V20.0981V36.5922L23.9576 27.9741L15.5957 20.1011Z" fill="#002169"/>
<path d="M181.674 30.5846H177.221V39.6764H190.056V35.2402H181.674V30.5846Z" fill="#002169"/>
<path d="M165.461 27.9396H152.517V32.3283H165.461V27.9396Z" fill="#002169"/>
<path d="M161.198 10.3209H156.769V12.8318H152.517V17.2756H153.659C153.081 18.2368 152.769 19.3205 152.769 20.4558C152.769 23.8876 155.56 26.6803 158.986 26.6803C162.411 26.6803 165.213 23.8876 165.213 20.4558C165.213 19.34 164.9 18.2513 164.316 17.2756H165.461V12.8318H161.198V10.3209H161.198ZM158.986 22.6159C157.782 22.6159 156.84 21.6655 156.84 20.4558C156.84 19.2688 157.804 18.303 158.986 18.303C160.167 18.303 161.139 19.2688 161.139 20.4558C161.139 21.6429 160.173 22.6159 158.986 22.6159Z" fill="#002169"/>
<path d="M181.369 12.8314V17.2753H185.607V25.6679H190.055V12.8314H181.369Z" fill="#002169"/>
<path d="M142.725 22.876L137.027 17.2753H140.725V12.8314H127.784V17.2753H131.48L125.752 22.876L128.915 26.032L134.257 20.5688L139.599 26.032L142.725 22.876Z" fill="#002169"/>
<path d="M148.853 12.8314H144.426V25.6583H148.853V12.8314Z" fill="#002169"/>
<path d="M57.3965 17.2753H61.9973V30.0769H66.4117V12.8314H57.3965V17.2753Z" fill="#002169"/>
<path d="M82.6648 12.8314H69.8594V25.6284H82.6648V12.8314ZM74.2971 21.1953V17.2531H78.2305V21.1953H74.2971Z" fill="#002169"/>
<path d="M90.1869 12.8314H85.7393V25.6484H90.1869V12.8314Z" fill="#002169"/>
<path d="M183.471 24.0384H170.646V33.0486H175.09V28.4099H183.471V24.0384Z" fill="#002169"/>
<path d="M110.868 32.8798H115.301V28.4099H119.36V32.8798H123.786V24.0384H110.868V32.8798Z" fill="#002169"/>
<path d="M60.8185 26.9128L54.4045 20.0117V12.8314H49.4368V20.0117L43.0205 26.9128L46.2861 30.1056L51.9201 24.0791L57.551 30.1056L60.8185 26.9128Z" fill="#002169"/>
<path d="M140.469 27.5091H136.045V36.5921H148.852V32.1475H140.469V27.5091Z" fill="#002169"/>
<path d="M81.8046 27.5091H77.3604V36.5921H90.1872V32.1475H81.8046V27.5091Z" fill="#002169"/>
<path d="M117.326 22.8994C120.75 22.8994 123.541 20.1163 123.541 16.6914C123.541 13.2666 120.75 10.4785 117.326 10.4785C113.902 10.4785 111.108 13.265 111.108 16.6914C111.108 20.1179 113.904 22.8994 117.326 22.8994ZM117.326 14.6214C118.461 14.6214 119.387 15.5515 119.387 16.6941C119.387 17.8268 118.461 18.7539 117.326 18.7539C116.206 18.7539 115.268 17.81 115.268 16.6941C115.268 15.571 116.206 14.6214 117.326 14.6214Z" fill="#002169"/>
<path d="M180.214 16.7029C180.214 13.2719 177.427 10.4785 173.992 10.4785C170.557 10.4785 167.778 13.2719 167.778 16.7029C167.778 20.134 170.568 22.9274 173.992 22.9274C177.416 22.9274 180.214 20.1347 180.214 16.7029ZM173.992 14.6573C175.149 14.6573 176.055 15.5519 176.055 16.7029C176.055 17.831 175.13 18.747 173.992 18.747C172.861 18.747 171.937 17.831 171.937 16.7029C171.937 15.5748 172.86 14.6573 173.992 14.6573Z" fill="#002169"/>
<path d="M158.984 33.5636C155.56 33.5636 152.77 36.3529 152.77 39.7801C152.77 43.2072 155.561 45.9995 158.984 45.9995C162.407 45.9995 165.208 43.2042 165.208 39.7801C165.208 36.3559 162.415 33.5636 158.984 33.5636ZM158.984 41.8413C157.859 41.8413 156.936 40.9154 156.936 39.7758C156.936 38.6432 157.859 37.7253 158.984 37.7253C160.117 37.7253 161.036 38.6432 161.036 39.7758C161.036 40.9154 160.117 41.8413 158.984 41.8413Z" fill="#002169"/>
<path d="M117.326 33.5737C113.904 33.5737 111.108 36.3621 111.108 39.7878C111.108 43.2134 113.904 46 117.326 46C120.748 46 123.541 43.2154 123.541 39.7878C123.541 36.3602 120.75 33.5737 117.326 33.5737ZM117.326 41.8533C116.206 41.8533 115.268 40.9052 115.268 39.7878C115.268 38.6704 116.206 37.7227 117.326 37.7227C118.461 37.7227 119.387 38.6509 119.387 39.7878C119.387 40.9247 118.461 41.8533 117.326 41.8533Z" fill="#002169"/>
<path d="M102.459 21.921H106.914V12.8314H94.0752V17.2753H102.459V21.921Z" fill="#002169"/>
<path d="M106.914 24.0384H94.0752V28.4099H106.914V24.0384Z" fill="#002169"/>
<path d="M106.914 43.4746V30.6478H94.0752V43.4746H106.914ZM98.5351 35.1035H102.453V39.0193H98.5351V35.1035Z" fill="#002169"/>
</svg>
