<svg width="36" height="36" viewBox="0 0 36 36" fill="none" xmlns="http://www.w3.org/2000/svg">
<path d="M18.2237 5H4.0189C2.90389 5 2 5.90389 2 7.0189V11.2741C2 12.3891 2.90389 13.293 4.0189 13.293H18.2237C19.3387 13.293 20.2426 12.3891 20.2426 11.2741V7.0189C20.2426 5.90389 19.3387 5 18.2237 5Z" fill="#FFC555"/>
<path d="M32.6976 30.9559C32.3663 30.9559 32.035 30.8317 31.7865 30.5728L26.1129 24.8992C25.6056 24.3919 25.6056 23.574 26.1129 23.0666C26.6202 22.5593 27.4381 22.5593 27.9454 23.0666L33.6191 28.7403C34.1264 29.2476 34.1264 30.0655 33.6191 30.5728C33.3706 30.8213 33.0393 30.9559 32.708 30.9559H32.6976Z" fill="#102161"/>
<path d="M18.2237 21.5964H4.0189C2.90389 21.5964 2 22.5003 2 23.6153V27.8706C2 28.9856 2.90389 29.8895 4.0189 29.8895H18.2237C19.3387 29.8895 20.2426 28.9856 20.2426 27.8706V23.6153C20.2426 22.5003 19.3387 21.5964 18.2237 21.5964Z" fill="#FFC555"/>
<path d="M18.2237 13.2516H4.0189C2.90389 13.2516 2 14.1555 2 15.2705V19.6085C2 20.7236 2.90389 21.6275 4.0189 21.6275H18.2237C19.3387 21.6275 20.2426 20.7236 20.2426 19.6085V15.2705C20.2426 14.1555 19.3387 13.2516 18.2237 13.2516Z" fill="#EBAC33"/>
<path d="M20.336 27.6737C14.6106 27.6737 9.96191 23.0147 9.96191 17.2997C9.96191 11.5846 14.6106 6.9256 20.336 6.9256C26.0614 6.9256 30.71 11.5846 30.71 17.2997C30.71 23.0147 26.051 27.6737 20.336 27.6737ZM20.336 9.50358C16.0393 9.50358 12.5503 13.003 12.5503 17.2893C12.5503 21.5756 16.0497 25.075 20.336 25.075C24.6223 25.075 28.1217 21.586 28.1217 17.2893C28.1217 12.9927 24.6223 9.50358 20.336 9.50358Z" fill="#102161"/>
</svg>
