<svg width="36" height="36" viewBox="0 0 36 36" fill="none" xmlns="http://www.w3.org/2000/svg">
<path d="M8.46497 34.9299C13.14 34.9299 16.9299 31.14 16.9299 26.465C16.9299 21.7899 13.14 18 8.46497 18C3.78989 18 0 21.7899 0 26.465C0 31.14 3.78989 34.9299 8.46497 34.9299Z" fill="#82C7F1"/>
<path d="M8.46569 30.1773C7.14116 30.1773 5.91354 29.4424 5.2755 28.2632C5.08975 27.9159 5.21897 27.4879 5.55818 27.3021C5.89739 27.1164 6.33352 27.2456 6.51927 27.5848C6.91502 28.3117 7.65805 28.7559 8.46569 28.7559C9.27333 28.7559 10.0164 28.3036 10.404 27.5848C10.5898 27.2375 11.0178 27.1083 11.3651 27.2941C11.7124 27.4798 11.8336 27.9079 11.6559 28.2552C11.0178 29.4343 9.7983 30.1693 8.46569 30.1693V30.1773Z" fill="#0052CC"/>
<path d="M6.00955 26.2038C6.56683 26.2038 7.0191 25.7515 7.0191 25.1942C7.0191 24.637 6.56683 24.1847 6.00955 24.1847C5.45228 24.1847 5 24.637 5 25.1942C5 25.7515 5.45228 26.2038 6.00955 26.2038Z" fill="#0052CC"/>
<path d="M10.9119 26.2038C11.4692 26.2038 11.9214 25.7515 11.9214 25.1942C11.9214 24.637 11.4692 24.1847 10.9119 24.1847C10.3546 24.1847 9.90234 24.637 9.90234 25.1942C9.90234 25.7515 10.3546 26.2038 10.9119 26.2038Z" fill="#0052CC"/>
<path d="M21.901 27.3312C29.5694 27.3312 35.7756 21.6547 35.7756 14.6656C35.7756 7.67649 29.5579 2 21.901 2C14.244 2 8.02637 7.67649 8.02637 14.6656C8.02637 21.6547 14.244 27.3312 21.901 27.3312Z" fill="#0052CC"/>
<path d="M20.9554 24.2567L12.8379 19.5704V26.6977C12.8379 27.6994 13.9202 28.3212 14.7838 27.8261L20.9554 24.2567Z" fill="#0052CC"/>
<path d="M16.5936 16.0475C17.3567 16.0475 17.9753 15.4289 17.9753 14.6658C17.9753 13.9027 17.3567 13.2841 16.5936 13.2841C15.8305 13.2841 15.2119 13.9027 15.2119 14.6658C15.2119 15.4289 15.8305 16.0475 16.5936 16.0475Z" fill="white"/>
<path d="M21.9003 16.0475C22.6634 16.0475 23.282 15.4289 23.282 14.6658C23.282 13.9027 22.6634 13.2841 21.9003 13.2841C21.1372 13.2841 20.5186 13.9027 20.5186 14.6658C20.5186 15.4289 21.1372 16.0475 21.9003 16.0475Z" fill="white"/>
<path d="M27.1971 16.0475C27.9602 16.0475 28.5788 15.4289 28.5788 14.6658C28.5788 13.9027 27.9602 13.2841 27.1971 13.2841C26.434 13.2841 25.8154 13.9027 25.8154 14.6658C25.8154 15.4289 26.434 16.0475 27.1971 16.0475Z" fill="white"/>
</svg>
