<svg width="36" height="36" viewBox="0 0 36 36" fill="none" xmlns="http://www.w3.org/2000/svg">
<path d="M16.5037 2.49322C14.4164 4.01815 10.871 5.78134 6.6107 6.67724C5.67669 6.87738 5 7.70656 5 8.66917V19.6486C5 22.3459 5.9912 24.9478 7.80205 26.9397C9.54619 28.8649 12.2815 30.7234 16.4655 32.439C17.4472 32.8393 18.5528 32.8393 19.5345 32.439C23.7185 30.7139 26.4538 28.8649 28.1979 26.9397C30.0088 24.9382 31 21.3928 31 18.6956V8.66917C31 7.70656 30.3233 6.87738 29.3893 6.67724C25.129 5.78134 21.5836 4.01815 19.4963 2.49322C18.6004 1.83559 17.4091 1.83559 16.5227 2.49322H16.5037Z" fill="#3E7BF1"/>
<path d="M17.9906 26.8158C22.7543 26.8158 26.616 22.9541 26.616 18.1904C26.616 13.4268 22.7543 9.56506 17.9906 9.56506C13.2269 9.56506 9.36523 13.4268 9.36523 18.1904C9.36523 22.9541 13.2269 26.8158 17.9906 26.8158Z" fill="#0052CC"/>
<path d="M13.9111 18.3715L16.9324 21.45L22.079 16.1985" stroke="white" stroke-width="2" stroke-linecap="round" stroke-linejoin="round"/>
</svg>
