<svg width="36" height="36" viewBox="0 0 36 36" fill="none" xmlns="http://www.w3.org/2000/svg">
<path d="M29.5064 9.3584H6.49008C4.56256 9.3584 3 10.921 3 12.8485V27.824C3 29.7515 4.56256 31.3141 6.49008 31.3141H29.5064C31.4339 31.3141 32.9965 29.7515 32.9965 27.824V12.8485C32.9965 10.921 31.4339 9.3584 29.5064 9.3584Z" fill="#5FAF57"/>
<path d="M6.49008 9.35836H29.5099C31.4352 9.35836 33 10.9231 33 12.8484V15.3339C33 19.02 30.007 22.013 26.3209 22.013H9.67911C5.993 22.013 3 19.02 3 15.3304V12.8449C3 10.9196 4.56476 9.35486 6.49008 9.35486V9.35836Z" fill="#498F43"/>
<path d="M22.3191 19.615H13.6762C12.8216 19.615 12.1289 20.3077 12.1289 21.1622V22.58C12.1289 23.4345 12.8216 24.1272 13.6762 24.1272H22.3191C23.1736 24.1272 23.8664 23.4345 23.8664 22.58V21.1622C23.8664 20.3077 23.1736 19.615 22.3191 19.615Z" fill="#277320"/>
<path d="M24.7421 9.35823H22.9918V8.07001C22.9918 7.34189 22.4002 6.75029 21.672 6.75029H14.3278C13.5997 6.75029 13.0081 7.34189 13.0081 8.07001V9.35823H11.2578V8.07001C11.2578 6.37573 12.637 5 14.3278 5H21.672C23.3663 5 24.7421 6.37923 24.7421 8.07001V9.35823Z" fill="#277320"/>
</svg>
