<svg width="36" height="36" viewBox="0 0 36 36" fill="none" xmlns="http://www.w3.org/2000/svg">
<path d="M18 30.387C26.2879 30.387 33 24.2533 33 16.6935C33 9.13364 26.2879 3 18 3C9.7121 3 3 9.13364 3 16.6935C3 24.2533 9.7121 30.387 18 30.387Z" fill="#99A2AA"/>
<path d="M16.2053 28.5819L7.42871 23.5154V31.2248C7.42871 32.302 8.5956 32.9801 9.5331 32.4416L16.2053 28.5918V28.5819Z" fill="#99A2AA"/>
<path d="M21.991 13.2959V13.4945C21.991 14.6503 21.5304 15.4179 19.8599 16.9259C18.8305 17.8559 18.6861 18.2261 18.6861 18.9756C18.6861 19.5084 18.2075 19.8425 17.6567 19.8425C17.0697 19.8425 16.5731 19.5626 16.5731 18.9214C16.5731 17.6753 16.7717 17.0162 18.054 15.8965C19.5258 14.6142 19.7245 14.2259 19.7245 13.5126V13.4223C19.7245 12.6728 19.2098 12.0136 17.8011 12.0136C16.862 12.0136 16.1848 12.3297 15.5437 12.7812C15.0832 13.0972 14.5865 12.9798 14.2434 12.5283C13.9003 12.1039 13.9003 11.4989 14.3698 11.1378C15.2367 10.4605 16.4015 10 17.8734 10C20.4559 10 22 11.3545 22 13.2959H21.991ZM18.984 22.3889C18.984 23.1564 18.3971 23.7434 17.6296 23.7434C16.862 23.7434 16.2751 23.1564 16.2751 22.3889C16.2751 21.6214 16.862 21.0344 17.6296 21.0344C18.3971 21.0344 18.984 21.6214 18.984 22.3889Z" fill="white"/>
</svg>
