<svg width="36" height="36" viewBox="0 0 36 36" fill="none" xmlns="http://www.w3.org/2000/svg">
<path d="M24.46 2H5.31C4.03422 2 3 3.03422 3 4.31V28.17C3 29.4458 4.03422 30.48 5.31 30.48H24.46C25.7358 30.48 26.77 29.4458 26.77 28.17V4.31C26.77 3.03422 25.7358 2 24.46 2Z" fill="#CBD0D5"/>
<path d="M21.1099 8.66992H8.66992C8.11992 8.66992 7.66992 8.21992 7.66992 7.66992C7.66992 7.11992 8.11992 6.66992 8.66992 6.66992H21.1099C21.6599 6.66992 22.1099 7.11992 22.1099 7.66992C22.1099 8.21992 21.6599 8.66992 21.1099 8.66992Z" fill="#99A2AA"/>
<path d="M21.1099 13.8301H8.66992C8.11992 13.8301 7.66992 13.3801 7.66992 12.8301C7.66992 12.2801 8.11992 11.8301 8.66992 11.8301H21.1099C21.6599 11.8301 22.1099 12.2801 22.1099 12.8301C22.1099 13.3801 21.6599 13.8301 21.1099 13.8301Z" fill="#99A2AA"/>
<path d="M15.3199 18.99H8.66992C8.11992 18.99 7.66992 18.54 7.66992 17.99C7.66992 17.44 8.11992 16.99 8.66992 16.99H15.3199C15.8699 16.99 16.3199 17.44 16.3199 17.99C16.3199 18.54 15.8699 18.99 15.3199 18.99Z" fill="#99A2AA"/>
<path d="M26.8298 31.1901L30.0098 33.8001C30.5498 34.2401 31.3598 33.8601 31.3598 33.1601V19.8201H22.2998L22.3198 33.1601C22.3198 33.8601 23.1398 34.2401 23.6798 33.8001L26.8298 31.2001V31.1901Z" fill="#E06F73"/>
<path d="M26.8302 27.71C30.7459 27.71 33.9202 24.5357 33.9202 20.62C33.9202 16.7043 30.7459 13.53 26.8302 13.53C22.9145 13.53 19.7402 16.7043 19.7402 20.62C19.7402 24.5357 22.9145 27.71 26.8302 27.71Z" fill="#FFC555"/>
<path d="M26.8299 25.3199C29.4256 25.3199 31.5299 23.2157 31.5299 20.6199C31.5299 18.0242 29.4256 15.9199 26.8299 15.9199C24.2341 15.9199 22.1299 18.0242 22.1299 20.6199C22.1299 23.2157 24.2341 25.3199 26.8299 25.3199Z" fill="#EBAC33"/>
</svg>
