<svg width="30" height="30" viewBox="0 0 30 30" fill="none" xmlns="http://www.w3.org/2000/svg">
<path d="M24.5963 9.47314L19.9594 14.11C20.9504 15.101 21.6422 16.3724 21.8946 17.8027C22.0254 18.5225 22.6051 19.0648 23.3342 19.0648H27.3261C28.0179 19.0648 28.5601 18.4665 28.4946 17.7747C28.1861 14.5401 26.7558 11.642 24.5869 9.47314H24.5963Z" fill="#5594D2"/>
<path d="M15.014 12.0533V5.5C11.2652 5.5 7.88103 7.01447 5.42236 9.47314L10.0592 14.11C11.3307 12.8386 13.0788 12.0533 15.014 12.0533Z" fill="#F2B25F"/>
<path d="M19.9688 14.11L24.6057 9.47314C22.147 7.01447 18.7535 5.5 15.014 5.5V12.0533C16.9492 12.0533 18.6974 12.8386 19.9688 14.11Z" fill="#6DB55C"/>
<path d="M5.4224 9.47314C3.25354 11.642 1.81386 14.5401 1.50536 17.7747C1.43992 18.4665 1.98214 19.0648 2.67393 19.0648H6.66576C7.39495 19.0648 7.97456 18.5225 8.10544 17.8027C8.3672 16.3724 9.05899 15.0916 10.0406 14.11L5.40371 9.47314H5.4224Z" fill="#E0515F"/>
<path d="M17.6783 10.8755L12.5179 16.4565C10.9848 18.1112 11.5363 20.7849 13.593 21.7104C15.659 22.6266 18.0149 21.2524 18.2205 18.9994L18.9217 11.427C18.9871 10.7352 18.1364 10.3613 17.669 10.8661L17.6783 10.8755Z" fill="#3F4851"/>
</svg>
