<svg width="30" height="30" viewBox="0 0 30 30" fill="none" xmlns="http://www.w3.org/2000/svg">
<path d="M13.85 4.24258L4.01215 8.65391H25.9789L16.15 4.24258C15.4223 3.91914 14.5778 3.91914 13.85 4.24258Z" fill="#5594D2"/>
<path d="M24.4425 9.211H19.8694V22.6606H24.4425V9.211Z" fill="#436FC6"/>
<path d="M10.1305 9.211H5.55743V22.6606H10.1305V9.211Z" fill="#436FC6"/>
<path d="M17.327 9.211H12.754V22.6606H17.327V9.211Z" fill="#436FC6"/>
<path d="M3.5 21.7441V23.5769C3.5 24.2319 4.03096 24.7629 4.68594 24.7629H25.3141C25.969 24.7629 26.5 24.2319 26.5 23.5769V21.7441C26.5 21.0892 25.969 20.5582 25.3141 20.5582H4.68594C4.03096 20.5582 3.5 21.0892 3.5 21.7441Z" fill="#69B9DE"/>
<path d="M3.5 9.66018V11.3762C3.5 12.0312 4.03096 12.5621 4.68594 12.5621L25.3141 12.5621C25.969 12.5621 26.5 12.0312 26.5 11.3762V9.66018C26.5 9.00521 25.969 8.47424 25.3141 8.47424L4.68594 8.47424C4.03096 8.47424 3.5 9.00521 3.5 9.66018Z" fill="#69B9DE"/>
</svg>
