<svg width="30" height="30" viewBox="0 0 30 30" fill="none" xmlns="http://www.w3.org/2000/svg">
<path d="M14.5045 27.1593C19.5735 27.1593 23.6827 23.0501 23.6827 17.9811C23.6827 12.9121 19.5735 8.80286 14.5045 8.80286C9.43547 8.80286 5.32623 12.9121 5.32623 17.9811C5.32623 23.0501 9.43547 27.1593 14.5045 27.1593Z" fill="#F4C277"/>
<path d="M14.5394 22.1539C13.0141 22.1539 11.6203 21.3123 10.8839 19.9535C10.6735 19.5591 10.8138 19.0682 11.2082 18.8578C11.6027 18.6474 12.0936 18.7876 12.304 19.1821C12.7511 20.0149 13.6102 20.5321 14.5306 20.5321C15.4511 20.5321 16.3102 20.0149 16.7573 19.1909C16.9677 18.7964 17.4586 18.6474 17.853 18.8665C18.2475 19.0769 18.3966 19.5678 18.1774 19.9623C17.441 21.3211 16.0384 22.1626 14.5219 22.1539H14.5394Z" fill="#9E3921"/>
<path d="M11.7343 17.5954C12.3742 17.5954 12.8914 17.0782 12.8914 16.4383C12.8914 15.7983 12.3742 15.2811 11.7343 15.2811C11.0944 15.2811 10.5771 15.7983 10.5771 16.4383C10.5771 17.0782 11.0944 17.5954 11.7343 17.5954Z" fill="#9E3921"/>
<path d="M17.3534 17.6041C17.9934 17.6041 18.5106 17.0869 18.5106 16.447C18.5106 15.8071 17.9934 15.2899 17.3534 15.2899C16.7135 15.2899 16.1963 15.8071 16.1963 16.447C16.1963 17.0869 16.7135 17.6041 17.3534 17.6041Z" fill="#9E3921"/>
<path d="M14.5044 12.1341C17.9846 12.1341 21.0002 12.6776 22.5255 13.4753V7.97009H6.48328V13.4753C8.0086 12.6776 11.0242 12.1341 14.5044 12.1341Z" fill="#18243A"/>
<path d="M27.3031 7.73344L14.5044 11.3802L1.69692 7.73344C0.767695 7.47045 0.767695 6.15552 1.69692 5.89253L12.795 2.73669C13.9083 2.4211 15.0917 2.4211 16.205 2.73669L27.3031 5.89253C28.2323 6.15552 28.2323 7.47045 27.3031 7.73344Z" fill="#18243A"/>
<path d="M25.1904 7.34775L24.2875 15.3075C24.2262 15.8598 24.6557 16.3419 25.2167 16.3419H26.3476C26.8999 16.3419 27.3382 15.8598 27.2768 15.3075L26.3739 7.34775C26.295 6.64645 25.2781 6.64645 25.1992 7.34775H25.1904Z" fill="#18243A"/>
</svg>
