<svg width="30" height="30" viewBox="0 0 30 30" fill="none" xmlns="http://www.w3.org/2000/svg">
<path d="M4.60106 8.04791H25.3896V22.6481C25.3896 23.5374 24.667 24.2693 23.7684 24.2693H6.21301C5.32366 24.2693 4.5918 23.5467 4.5918 22.6481V8.04791H4.60106Z" fill="#F7B7C7"/>
<path d="M27.7798 12.7911H2.21095C1.13631 12.7911 0.598997 11.4941 1.34939 10.7345L6.02774 5.99126C6.6577 5.3613 7.51 5 8.39935 5H21.6007C22.49 5 23.3423 5.3613 23.9723 5.99126L28.6506 10.7345C29.401 11.5034 28.8637 12.7911 27.7891 12.7911H27.7798Z" fill="#EE99A9"/>
<path d="M20.1739 11.8832C19.0437 10.6882 17.2928 10.5122 15.9866 11.4108C15.8013 11.5312 15.6345 11.6887 15.4863 11.8462L15.0416 12.3094L14.5969 11.8462C14.4395 11.6887 14.2727 11.5405 14.0967 11.4108C12.7904 10.5122 11.0395 10.6882 9.90932 11.8832C8.51971 13.347 8.62162 15.7649 10.1131 17.0989L13.9485 20.5729C14.5692 21.1288 15.5048 21.1288 16.1255 20.5729L19.9794 17.0989C21.4802 15.7556 21.5728 13.347 20.1832 11.8832H20.1739Z" fill="#E51F44"/>
</svg>
