<svg width="30" height="30" viewBox="0 0 30 30" fill="none" xmlns="http://www.w3.org/2000/svg">
<path d="M16.1714 2.53746L18.8633 5.67951L22.9883 5.35795C23.9346 5.28445 24.7155 6.07456 24.642 7.01166L24.3205 11.1367L27.4625 13.8286C28.1792 14.4442 28.1792 15.5558 27.4625 16.1714L24.3205 18.8633L24.642 22.9883C24.7155 23.9346 23.9254 24.7155 22.9883 24.642L18.8633 24.3205L16.1714 27.4625C15.5558 28.1792 14.4442 28.1792 13.8286 27.4625L11.1367 24.3205L7.01166 24.642C6.06537 24.7155 5.28445 23.9254 5.35795 22.9883L5.67951 18.8633L2.53746 16.1714C1.82085 15.5558 1.82085 14.4442 2.53746 13.8286L5.67951 11.1367L5.35795 7.01166C5.28445 6.06537 6.07456 5.28445 7.01166 5.35795L11.1367 5.67951L13.8286 2.53746C14.4442 1.82085 15.5558 1.82085 16.1714 2.53746Z" fill="#E58A4C"/>
<path d="M15.0046 23.9622C19.9568 23.9622 23.9714 19.9476 23.9714 14.9954C23.9714 10.0432 19.9568 6.02863 15.0046 6.02863C10.0524 6.02863 6.03784 10.0432 6.03784 14.9954C6.03784 19.9476 10.0524 23.9622 15.0046 23.9622Z" fill="#F4C277"/>
<path d="M15.0413 19.2584C13.4703 19.2584 12.0187 18.3856 11.2653 16.9891C11.0448 16.5849 11.1918 16.0704 11.6053 15.8499C12.0095 15.6294 12.524 15.7764 12.7445 16.1898C13.213 17.0442 14.095 17.5863 15.0505 17.5863C16.006 17.5863 16.888 17.0534 17.3565 16.1898C17.577 15.7856 18.0823 15.6294 18.4957 15.8499C18.9 16.0704 19.0562 16.5757 18.8357 16.9891C18.0823 18.3948 16.6307 19.2584 15.0597 19.2584H15.0413Z" fill="#9E3921"/>
<path d="M12.1382 14.5545C12.7997 14.5545 13.3325 14.0216 13.3325 13.3601C13.3325 12.6986 12.7997 12.1658 12.1382 12.1658C11.4767 12.1658 10.9438 12.6986 10.9438 13.3601C10.9438 14.0216 11.4767 14.5545 12.1382 14.5545Z" fill="#9E3921"/>
<path d="M17.9537 14.5545C18.6152 14.5545 19.148 14.0216 19.148 13.3601C19.148 12.6986 18.6152 12.1658 17.9537 12.1658C17.2922 12.1658 16.7593 12.6986 16.7593 13.3601C16.7593 14.0216 17.2922 14.5545 17.9537 14.5545Z" fill="#9E3921"/>
</svg>
