<svg width="30" height="30" viewBox="0 0 30 30" fill="none" xmlns="http://www.w3.org/2000/svg">
<path d="M14.8273 6.0636C9.27271 6.0636 4.76361 10.5636 4.76361 16.1272C4.76361 19.1182 6.06361 22.1818 8.13634 24.3818C8.54543 24.8091 9.10907 25.0636 9.69998 25.0636H11.0909C11.6273 25.0636 12.1 24.7 12.2454 24.1818L12.4727 23.3454H17.1909L17.4182 24.1818C17.5545 24.7 18.0273 25.0636 18.5727 25.0636H19.9636C20.5545 25.0636 21.1273 24.8182 21.5273 24.3818C23.6 22.1818 24.9 19.1182 24.9 16.1272C24.9 10.5636 20.3909 6.0636 14.8363 6.0636H14.8273Z" fill="#F2B1C3"/>
<path d="M6.6 19.1546L3.49091 17.6819C2.88182 17.391 2.5 16.7546 2.5 16.0455V14.0001C2.5 13.3001 3.02727 12.7365 3.69091 12.7365H6.60909V19.1637L6.6 19.1546Z" fill="#F2B1C3"/>
<path d="M11.5091 12.2727H5.93635L4.39089 9.12726C3.97271 8.2818 4.59089 7.29089 5.53635 7.29089H11.5V12.2727H11.5091Z" fill="#F2B1C3"/>
<path d="M26.5 13.4818C26.5 14.6909 25.5182 15.6818 24.3 15.6818" stroke="#F2B1C3" stroke-width="2" stroke-miterlimit="10" stroke-linecap="round"/>
<path d="M20.4637 4.5H25.1455C25.3728 4.5 25.4819 4.77273 25.3273 4.92727L20.5001 9.75455C20.3455 9.9091 20.4546 10.1818 20.6819 10.1818H25.4273" stroke="#3F4851" stroke-width="2" stroke-miterlimit="10" stroke-linecap="round"/>
<path d="M17.5091 9.09091C16.7273 8.71818 15.8637 8.5 14.9455 8.5C14.0273 8.5 13.1546 8.71818 12.3818 9.09091" stroke="#EF789A" stroke-width="1.8" stroke-miterlimit="10" stroke-linecap="round"/>
<path d="M10.0637 13.6727C9.43641 14.3 8.41823 14.3 7.79095 13.6727" stroke="#D1203D" stroke-width="1.8" stroke-miterlimit="10" stroke-linecap="round"/>
<path fill-rule="evenodd" clip-rule="evenodd" d="M19.4637 4.5C19.4637 3.94772 19.9114 3.5 20.4637 3.5H25.1455C26.2596 3.5 26.8218 4.84698 26.0344 5.63438L22.487 9.18182H25.4273C25.9796 9.18182 26.4273 9.62954 26.4273 10.1818C26.4273 10.7341 25.9796 11.1818 25.4273 11.1818H20.6819C19.5678 11.1818 19.0055 9.83484 19.7929 9.04744L23.3404 5.5H20.4637C19.9114 5.5 19.4637 5.05228 19.4637 4.5Z" fill="#3F4851"/>
<path fill-rule="evenodd" clip-rule="evenodd" d="M11.9908 8.28026C12.8782 7.85225 13.884 7.59998 14.9455 7.59998C16.009 7.59998 17.0043 7.85316 17.8964 8.27849C18.3451 8.49239 18.5354 9.02952 18.3215 9.47819C18.1076 9.92687 17.5705 10.1172 17.1218 9.90329C16.4503 9.58315 15.7183 9.39998 14.9455 9.39998C14.1706 9.39998 13.431 9.58407 12.7728 9.90151C12.3251 10.1175 11.7872 9.92959 11.5712 9.48189C11.3553 9.0342 11.5431 8.49621 11.9908 8.28026Z" fill="#EF789A"/>
<path fill-rule="evenodd" clip-rule="evenodd" d="M7.15453 13.0363C7.50601 12.6848 8.07585 12.6848 8.42733 13.0363C8.70313 13.3121 9.15146 13.3121 9.42726 13.0363C9.77873 12.6848 10.3486 12.6848 10.7001 13.0363C11.0515 13.3878 11.0515 13.9576 10.7001 14.3091C9.72131 15.2878 8.13328 15.2878 7.15453 14.3091C6.80306 13.9576 6.80306 13.3878 7.15453 13.0363Z" fill="#D1203D"/>
</svg>
