<svg width="24" height="24" viewBox="0 0 24 24" fill="none" xmlns="http://www.w3.org/2000/svg">
<path fill-rule="evenodd" clip-rule="evenodd" d="M12.669 2.25671C12.2887 1.91443 11.7113 1.91443 11.331 2.25671L1.33104 11.2567C0.920534 11.6262 0.887255 12.2585 1.25671 12.669C1.62617 13.0795 2.25846 13.1128 2.66897 12.7433L3.99999 11.5454V19.5C3.99999 20.6046 4.89542 21.5 5.99999 21.5H18C19.1046 21.5 20 20.6046 20 19.5V11.5453L21.331 12.7433C21.7416 13.1128 22.3738 13.0795 22.7433 12.669C23.1128 12.2585 23.0795 11.6262 22.669 11.2567L12.669 2.25671Z" fill="#FD741B"/>
<path d="M9.92308 13.5H14.0769C14.5865 13.5 15 13.948 15 14.5V21.5H9V14.5C9 13.948 9.41354 13.5 9.92308 13.5Z" fill="#FFC9A6"/>
</svg>
