<svg width="24" height="24" viewBox="0 0 24 24" fill="none" xmlns="http://www.w3.org/2000/svg">
<path d="M8 9.35156H4V19.3516H8V9.35156Z" fill="#0D9240"/>
<path fill-rule="evenodd" clip-rule="evenodd" d="M19 19.3516H17C16.4 19.3516 16 18.9516 16 18.3516V10.3516C16 9.75156 16.4 9.35156 17 9.35156H19C19.6 9.35156 20 9.75156 20 10.3516V18.3516C20 18.9516 19.6 19.3516 19 19.3516Z" fill="#0D9240"/>
<path d="M14 9.35156H10V19.3516H14V9.35156Z" fill="#0D9240"/>
<path fill-rule="evenodd" clip-rule="evenodd" d="M21 21.3516H3C2.4 21.3516 2 20.9516 2 20.3516V18.3516C2 17.7516 2.4 17.3516 3 17.3516H21C21.6 17.3516 22 17.7516 22 18.3516V20.3516C22 20.9516 21.6 21.3516 21 21.3516Z" fill="#00BF4A"/>
<path fill-rule="evenodd" clip-rule="evenodd" d="M11.3 2.65L2.6 6.15C2.2 6.25 2 6.65 2 7.05V9.35C2 9.95 2.4 10.35 3 10.35H21C21.6 10.35 22 9.95 22 9.35V7.05C22 6.65 21.8 6.25 21.4 6.15L12.8 2.65C12.3 2.45 11.7 2.45 11.3 2.65Z" fill="#00BF4A"/>
</svg>
