<svg width="24" height="24" viewBox="0 0 24 24" fill="none" xmlns="http://www.w3.org/2000/svg">
<path fill-rule="evenodd" clip-rule="evenodd" d="M20.7992 8.64844H3.19922V20.7484C3.19922 21.356 3.69171 21.8484 4.29922 21.8484H19.6992C20.3067 21.8484 20.7992 21.356 20.7992 20.7484V8.64844ZM10.35 16.3477C9.74249 16.3477 9.25 16.8401 9.25 17.4477V21.8477H14.75V17.4477C14.75 16.8401 14.2575 16.3477 13.65 16.3477H10.35Z" fill="#B9BCCB"/>
<path d="M23 8.64844H1L4.29209 3.48325C4.41619 3.27563 4.64031 3.14844 4.88231 3.14844H19.118C19.36 3.14844 19.5842 3.27563 19.7083 3.48325L23 8.64844Z" fill="#81ACFC"/>
<path d="M6.5 8.64844H12V8.99219C12 10.5098 10.7677 11.7422 9.25 11.7422C7.73234 11.7422 6.5 10.5098 6.5 8.99219V8.64844Z" fill="#3976ED"/>
<path d="M17.5 8.64844V8.99219C17.5 10.5116 16.2694 11.7422 14.75 11.7422C13.2306 11.7422 12 10.5116 12 8.99219V8.64844H17.5Z" fill="#3976ED"/>
<path d="M20.5938 8.64844H17.5V8.99219C17.5 10.5116 18.7306 11.7422 20.25 11.7422C20.3669 11.7422 20.4803 11.7353 20.5938 11.7216C21.9516 11.5531 23 10.3947 23 8.99219V8.64844H20.5938Z" fill="#3976ED"/>
<path d="M3.40625 8.64844H1V8.99219C1 10.3947 2.04844 11.5531 3.40625 11.7216C3.51969 11.7353 3.63313 11.7422 3.75 11.7422C5.26937 11.7422 6.5 10.5116 6.5 8.99219V8.64844H3.40625Z" fill="#3976ED"/>
</svg>
