<svg width="24" height="24" viewBox="0 0 24 24" fill="none" xmlns="http://www.w3.org/2000/svg">
<path d="M11.4992 2.88281C-0.420774 2.88281 1.80523 13.2928 1.80523 13.2928H21.1922C21.1922 13.2928 23.4192 2.88281 11.4992 2.88281Z" fill="#B8BEC5"/>
<path d="M21.289 12.7381C21.057 12.6441 20.812 12.5871 20.554 12.5641H20.55V12.5611C20.015 12.1471 19.334 11.3051 19.017 9.61606C18.455 6.62206 17.796 5.53906 11.5 5.53906C5.204 5.53906 4.54 6.62206 3.979 9.61606C3.663 11.3071 2.983 12.1491 2.448 12.5641H2.446C2.188 12.5861 1.943 12.6441 1.711 12.7381C0.708 13.1171 0 14.0881 0 15.2241C0 16.6991 1.194 17.8931 2.669 17.8931C2.691 17.8931 2.715 17.8911 2.738 17.8901C2.757 17.9581 2.772 18.0281 2.793 18.0951C3.871 21.5701 7.36 23.4281 11.499 23.4281C15.714 23.4281 19.245 21.4921 20.251 17.8901C20.278 17.8911 20.305 17.8931 20.33 17.8931C21.805 17.8931 22.999 16.6991 22.999 15.2241C22.999 14.0881 22.292 13.1171 21.289 12.7381Z" fill="#FFCBA6"/>
<path d="M5.56699 12.794C5.25499 12.794 4.97099 12.583 4.89199 12.266C4.79899 11.892 5.02499 11.514 5.39899 11.421L8.18599 10.724C8.56099 10.631 8.93799 10.858 9.03099 11.231C9.12399 11.605 8.89799 11.983 8.52399 12.076L5.73699 12.773C5.67999 12.787 5.62299 12.794 5.56699 12.794Z" fill="#9C8679"/>
<path d="M17.4223 12.794C17.3663 12.794 17.3103 12.787 17.2523 12.773L14.4653 12.076C14.0923 11.983 13.8653 11.604 13.9583 11.231C14.0513 10.858 14.4273 10.631 14.8033 10.724L17.5903 11.421C17.9633 11.514 18.1903 11.893 18.0973 12.266C18.0183 12.582 17.7343 12.794 17.4223 12.794Z" fill="#9C8679"/>
<path d="M7.38003 15.614C7.89003 15.614 8.30303 15.029 8.30303 14.307C8.30303 13.585 7.89003 13 7.38003 13C6.87003 13 6.45703 13.585 6.45703 14.307C6.45703 15.029 6.87003 15.614 7.38003 15.614Z" fill="#19273F"/>
<path d="M15.6183 15.614C16.1273 15.614 16.5403 15.029 16.5403 14.307C16.5403 13.585 16.1273 13 15.6183 13C15.1093 13 14.6953 13.585 14.6953 14.307C14.6953 15.029 15.1083 15.614 15.6183 15.614Z" fill="#19273F"/>
<path d="M9.54046 16.3984C8.81646 16.3984 8.21046 16.8724 7.99646 17.5254C7.55346 17.6304 7.05746 17.7104 6.54146 17.7264C6.21946 17.7354 5.99046 18.0524 6.10346 18.3554C6.36646 19.0564 7.15746 20.0344 9.53946 19.6624C10.4405 19.6624 11.1715 18.9324 11.1715 18.0304C11.1715 17.1284 10.4415 16.3984 9.54046 16.3984Z" fill="#897365"/>
<path d="M13.549 16.3984C14.273 16.3984 14.879 16.8724 15.093 17.5254C15.536 17.6304 16.032 17.7104 16.548 17.7264C16.87 17.7354 17.099 18.0524 16.986 18.3554C16.723 19.0564 15.932 20.0344 13.55 19.6624C12.649 19.6624 11.918 18.9324 11.918 18.0304C11.918 17.1284 12.648 16.3984 13.549 16.3984Z" fill="#897365"/>
<path d="M1.62227 13.355C1.56927 13.271 1.52427 13.179 1.48327 13.09C1.11727 12.287 0.82027 11.434 0.80527 10.552C0.79627 10.04 0.89127 9.51705 1.10827 9.05205C1.29427 8.65405 1.85227 8.26905 1.85327 7.82305C1.85627 5.26005 2.99527 2.77405 5.43627 1.72705C6.57827 1.23705 7.84927 0.996049 9.09127 1.00005C9.71427 1.00205 10.3423 1.06705 10.9453 1.22905C11.5103 1.38005 12.2583 2.08505 12.8583 1.89005C13.6903 1.62005 16.0423 0.995049 17.4803 1.99605C18.8163 2.92605 19.4303 3.70905 19.6913 5.04405C19.8543 5.87805 20.1843 6.67005 20.7413 7.31205C21.5303 8.22005 22.4163 9.98805 21.4463 12.918C21.3143 13.317 20.8533 13.487 20.4983 13.261C19.8223 12.829 18.8503 11.914 18.5183 10.114C18.2343 8.57505 17.2313 7.04505 15.6623 6.55105C14.7403 6.26105 14.0613 6.53305 13.1653 6.67305C12.3043 6.80705 11.8003 5.94205 11.0363 5.67905C9.97227 5.31305 8.99027 5.70905 8.30427 6.57405C7.60927 7.45105 7.09927 8.56205 6.31727 9.36105C6.04627 9.63805 5.73527 9.81205 5.37127 9.94005C4.67927 10.183 4.49927 10.48 4.22027 11.178C3.90327 11.97 3.42927 12.7 2.83527 13.313C2.61727 13.538 2.32427 13.764 2.02027 13.686C1.84627 13.642 1.72027 13.51 1.62227 13.355Z" fill="#AB9588"/>
</svg>
