<svg width="24" height="24" viewBox="0 0 24 24" fill="none" xmlns="http://www.w3.org/2000/svg">
<path d="M20.5284 8.53125L16.4062 12.653C17.2872 13.5339 17.9022 14.664 18.1266 15.9354C18.2429 16.5753 18.7582 17.0573 19.4065 17.0573H22.9552C23.5702 17.0573 24.0522 16.5255 23.994 15.9105C23.7198 13.0353 22.4482 10.4592 20.5201 8.53125H20.5284Z" fill="#3976ED"/>
<path d="M12.0191 10.8253V5C8.68645 5 5.67793 6.34622 3.49219 8.53174L7.61435 12.6535C8.74462 11.5233 10.2987 10.8253 12.0191 10.8253Z" fill="#F9BB1E"/>
<path d="M16.4165 12.6535L20.5386 8.53174C18.3529 6.34622 15.336 5 12.0117 5V10.8253C13.7321 10.8253 15.2862 11.5233 16.4165 12.6535Z" fill="#04BB4B"/>
<path d="M3.487 8.53125C1.55889 10.4592 0.279021 13.0353 0.0047644 15.9105C-0.0534113 16.5254 0.428616 17.0573 1.04362 17.0573H4.59233C5.24058 17.0573 5.75585 16.5753 5.8722 15.9354C6.1049 14.664 6.7199 13.5255 7.59254 12.653L3.47037 8.53125H3.487Z" fill="#DC4252"/>
<path d="M14.5517 10.2329L9.59271 15.5946C8.11938 17.1842 8.64942 19.7528 10.6258 20.6419C12.6112 21.5221 14.8751 20.2019 15.0728 18.0374L15.7466 10.7628C15.8095 10.0982 14.9919 9.73891 14.5428 10.2239L14.5517 10.2329Z" fill="#4A5259"/>
</svg>
