<svg width="24" height="24" viewBox="0 0 24 24" fill="none" xmlns="http://www.w3.org/2000/svg">
<path d="M12 4.0625V19.1872" stroke="#81ACFC" stroke-width="1.5" stroke-linecap="round" stroke-linejoin="round"/>
<path d="M16.6736 20.4937C17.4807 20.4937 17.813 18.9483 17.1348 18.3085C15.6563 16.9107 13.8997 16.0938 12.0008 16.0938C10.1018 16.0938 8.34521 16.9107 6.86671 18.3085C6.1885 18.9483 6.51405 20.4937 7.3279 20.4937H16.6736Z" fill="#3976ED"/>
<path d="M5.39844 4.68359L18.5981 3.21695" stroke="#81ACFC" stroke-width="1.5" stroke-linecap="round" stroke-linejoin="round"/>
<path d="M22.2628 10.548C22.2541 9.95555 22.1048 9.34537 21.771 8.7794L19.5228 3.81839C19.1627 3.01366 18.0298 3.01366 17.6697 3.81839L15.4215 8.7794C15.0965 9.35421 14.9385 9.95555 14.9297 10.548" stroke="#81ACFC" stroke-width="1.5" stroke-linecap="round" stroke-linejoin="round"/>
<path d="M14.1999 10.5469C14.1575 12.8302 16.0004 14.9468 18.5991 14.9468C21.1979 14.9468 23.0408 12.8302 22.9983 10.5469H14.1999Z" fill="#3976ED"/>
<path d="M9.06753 12.0129C9.05875 11.4204 8.90945 10.8102 8.57573 10.2442L6.32748 5.28323C5.96741 4.47851 4.8345 4.47851 4.47443 5.28323L2.22618 10.2442C1.90124 10.8191 1.74316 11.4204 1.73438 12.0129" stroke="#81ACFC" stroke-width="1.5" stroke-linecap="round" stroke-linejoin="round"/>
<path d="M1.00072 12.0156C0.958025 14.3555 2.81112 16.5246 5.42424 16.5246C8.03736 16.5246 9.89046 14.3555 9.84776 12.0156H1.00072Z" fill="#3976ED"/>
</svg>
