<svg width="24" height="24" viewBox="0 0 24 24" fill="none" xmlns="http://www.w3.org/2000/svg">
<g clip-path="url(#clip0_603_200)">
<path d="M16.0031 1.88672C16.7232 1.88672 17.2193 2.60779 16.9625 3.28058L15.8306 6.24188C15.6426 6.19771 15.4423 6.15354 15.2564 6.10938C14.7428 5.98714 14.2231 5.89881 13.6962 5.85567C13.2997 5.82382 12.8909 5.78993 12.4821 5.78993C12.3383 5.78993 12.1945 5.78993 12.0507 5.8002H12.0301C11.8863 5.78993 11.7425 5.78993 11.5987 5.78993C11.191 5.78993 10.7822 5.82382 10.3867 5.85567C9.85978 5.89881 9.34005 5.98714 8.82545 6.10938C8.63954 6.15354 8.43924 6.19771 8.25127 6.24188L7.11936 3.28058C6.86257 2.60779 7.35868 1.88672 8.07871 1.88672L16.0031 1.88672Z" fill="#1EA351"/>
<path d="M8.23963 6.24101C7.77742 6.37454 7.3152 6.52862 6.87353 6.71351C6.19561 6.99084 5.54851 7.34007 4.96304 7.77148C4.31594 8.2337 3.75101 8.79864 3.26825 9.42521C2.73413 10.1442 2.33354 10.9557 2.04594 11.8082C1.70698 12.8457 1.55291 13.9447 1.53237 15.0438C1.5221 15.5471 1.58373 16.0504 1.6659 16.5537C1.78916 17.3343 1.9535 18.115 2.20001 18.8751C2.4568 19.6763 2.79576 20.4877 3.32988 21.1451C3.80236 21.71 4.44946 22.1209 5.20955 22.1209H18.8603C19.6101 22.1209 20.2572 21.71 20.7297 21.1451C21.2638 20.4877 21.6028 19.6763 21.8596 18.8751C22.1061 18.115 22.2704 17.3343 22.3937 16.5537C22.4759 16.0504 22.5478 15.5471 22.5272 15.0438C22.5067 13.9447 22.3526 12.8457 22.0137 11.8082C21.7363 10.9557 21.3255 10.1442 20.7914 9.42521C20.3086 8.79864 19.7437 8.2337 19.0966 7.77148C18.5111 7.34007 17.864 6.99084 17.1861 6.71351C16.7444 6.52862 16.2925 6.37454 15.82 6.24101C15.6454 6.19993 15.4605 6.15884 15.2859 6.11775C14.7415 5.99449 14.1971 5.91232 13.6322 5.85069C13.2521 5.81988 12.8618 5.78906 12.4715 5.78906C12.3277 5.78906 12.1839 5.78906 12.0401 5.79933H12.0308C11.887 5.78906 11.7432 5.78906 11.5994 5.78906C11.2091 5.78906 10.8188 5.81988 10.4388 5.85069C9.8841 5.91232 9.32944 5.99449 8.78505 6.11775C8.61043 6.15884 8.42555 6.19993 8.25093 6.24101H8.23963Z" fill="#00BF4A"/>
<path d="M7.79297 11.5352L10.1261 17.1356L11.9922 11.5352L13.8588 17.1356L16.1915 11.5352" stroke="white" stroke-width="1.57503" stroke-linecap="round" stroke-linejoin="round"/>
<path d="M7.32812 13.8672H8.26108" stroke="white" stroke-width="1.57503" stroke-linecap="round" stroke-linejoin="round"/>
<path d="M15.7266 13.8672H16.6597" stroke="white" stroke-width="1.57503" stroke-linecap="round" stroke-linejoin="round"/>
</g>
<defs>
<clipPath id="clip0_603_200">
<rect width="21" height="20.2351" fill="white" transform="translate(1.53125 1.88281)"/>
</clipPath>
</defs>
</svg>
