<svg width="32" height="32" viewBox="0 0 32 32" fill="none" xmlns="http://www.w3.org/2000/svg">
<path d="M24.539 4.14813H7.46054C6.04014 4.14813 4.88867 5.2996 4.88867 6.72V23.7985C4.88867 25.2189 6.04014 26.3704 7.46054 26.3704H24.539C25.9594 26.3704 27.1109 25.2189 27.1109 23.7985V6.72C27.1109 5.2996 25.9594 4.14813 24.539 4.14813Z" fill="#5FAF57"/>
<path d="M7.46054 4.14813H24.539C25.9584 4.14813 27.1109 5.30059 27.1109 6.72V9.21156H4.88867V6.72C4.88867 5.30059 6.04113 4.14813 7.46054 4.14813Z" fill="#277320"/>
<path d="M22.4923 15.981H21.0924L21.8108 14.1818C21.9671 13.7911 21.7761 13.3462 21.3854 13.1899C20.9926 13.0337 20.5498 13.2247 20.3936 13.6153L18.5639 18.1991L16.7343 13.6153C16.6128 13.3093 16.3111 13.127 15.9986 13.1378C15.6839 13.1248 15.3844 13.3071 15.2607 13.6153L13.4311 18.1991L11.6015 13.6153C11.4452 13.2247 11.0024 13.0337 10.6096 13.1899C10.2189 13.3462 10.028 13.7911 10.1842 14.1818L10.9026 15.981H9.50273C9.08169 15.981 8.73877 16.3217 8.73877 16.745C8.73877 17.1682 9.07951 17.5089 9.50273 17.5089H11.5103L12.7214 20.5431C12.8364 20.8339 13.1185 21.0227 13.4311 21.0227C13.7436 21.0227 14.0236 20.8317 14.1408 20.5431L15.9964 15.892L17.8521 20.5431C17.9671 20.8339 18.2492 21.0227 18.5618 21.0227C18.8743 21.0227 19.1543 20.8317 19.2715 20.5431L20.4825 17.5089H22.4901C22.9112 17.5089 23.2541 17.1682 23.2541 16.745C23.2541 16.3217 22.9133 15.981 22.4901 15.981H22.4923Z" fill="white"/>
<path d="M7.68173 7.55764C8.16718 7.55764 8.56072 7.1641 8.56072 6.67864C8.56072 6.19319 8.16718 5.79965 7.68173 5.79965C7.19627 5.79965 6.80273 6.19319 6.80273 6.67864C6.80273 7.1641 7.19627 7.55764 7.68173 7.55764Z" fill="#F1ACBE"/>
<path d="M10.5792 7.55764C11.0646 7.55764 11.4582 7.1641 11.4582 6.67864C11.4582 6.19319 11.0646 5.79965 10.5792 5.79965C10.0937 5.79965 9.7002 6.19319 9.7002 6.67864C9.7002 7.1641 10.0937 7.55764 10.5792 7.55764Z" fill="#FFDD87"/>
<path d="M13.4747 7.55764C13.9602 7.55764 14.3537 7.1641 14.3537 6.67864C14.3537 6.19319 13.9602 5.79965 13.4747 5.79965C12.9892 5.79965 12.5957 6.19319 12.5957 6.67864C12.5957 7.1641 12.9892 7.55764 13.4747 7.55764Z" fill="#83CC7B"/>
<path d="M29.8971 23.7643L23.4188 19.8189C22.7266 19.3972 21.8701 20.0201 22.0561 20.8096L23.806 28.1899C23.9661 28.8669 24.8594 29.0183 25.2358 28.4322L26.3908 26.6282L28.1148 29.001C28.264 29.2044 28.4933 29.3125 28.7269 29.3125C28.8805 29.3125 29.0362 29.2649 29.1703 29.1676C29.5078 28.921 29.5835 28.4495 29.3369 28.1099L27.6129 25.7349L29.6851 25.1941C30.3578 25.0189 30.4898 24.1212 29.8949 23.76L29.8971 23.7643Z" fill="#0A2065"/>
</svg>
