<svg width="32" height="32" viewBox="0 0 32 32" fill="none" xmlns="http://www.w3.org/2000/svg">
<path d="M16.0001 7.51598C23.1551 7.51598 28.963 13.2811 28.963 20.3834V20.786C28.963 25.1388 25.4027 28.6729 21.0175 28.6729H10.9826C6.59746 28.6695 3.03711 25.1354 3.03711 20.7825V20.38C3.03711 13.2811 8.84501 7.51598 16.0001 7.51598Z" fill="#6EB7E4"/>
<path d="M11.7284 8.21543H20.2684L22.3201 5.26806C22.9765 4.32654 22.296 3.03706 21.1413 3.03706H10.8521C9.69734 3.03706 9.01689 4.32313 9.67329 5.26806L11.725 8.21543H11.7284Z" fill="#2757C3"/>
<path d="M13.1133 23.1365C12.7628 23.1365 12.4466 22.925 12.316 22.6009L9.46021 15.4952C9.28494 15.0585 9.49801 14.5605 9.94134 14.3865C10.3812 14.2125 10.883 14.424 11.0582 14.8641L13.1168 19.9845L15.1753 14.8641C15.3506 14.4274 15.8523 14.2125 16.2922 14.3865C16.7321 14.5605 16.9486 15.0585 16.7734 15.4952L13.9175 22.6009C13.7869 22.925 13.4708 23.1365 13.1202 23.1365H13.1133Z" fill="white"/>
<path d="M18.8868 23.1365C18.5362 23.1365 18.2201 22.925 18.0895 22.6009L15.2336 15.4952C15.0584 15.0585 15.2714 14.5605 15.7148 14.3865C16.1547 14.2125 16.6564 14.424 16.8317 14.8641L18.8902 19.9845L20.9488 14.8641C21.124 14.4274 21.6258 14.2125 22.0657 14.3865C22.5056 14.5605 22.7221 15.0585 22.5468 15.4952L19.691 22.6009C19.5604 22.925 19.2442 23.1365 18.8937 23.1365H18.8868Z" fill="white"/>
<path d="M11.0684 19.21H8.68679C8.21254 19.21 7.82764 18.828 7.82764 18.3572C7.82764 17.8865 8.21254 17.5044 8.68679 17.5044H11.0684C11.5426 17.5044 11.9275 17.8865 11.9275 18.3572C11.9275 18.828 11.5426 19.21 11.0684 19.21Z" fill="white"/>
<path d="M23.3096 19.21H20.9314C20.4572 19.21 20.0723 18.828 20.0723 18.3572C20.0723 17.8865 20.4572 17.5044 20.9314 17.5044H23.3096C23.7838 17.5044 24.1687 17.8865 24.1687 18.3572C24.1687 18.828 23.7838 19.21 23.3096 19.21Z" fill="white"/>
</svg>
