<svg width="40" height="40" viewBox="0 0 40 40" fill="none" xmlns="http://www.w3.org/2000/svg">
<path d="M19.4003 6.11108C11.3666 6.11108 4.85486 12.6229 4.85486 20.6565C4.85486 25.1765 6.91675 29.8193 10.1534 33.0138C10.5075 33.361 10.9809 33.5609 11.4753 33.5609H13.9966C14.7786 33.5609 15.4624 33.0384 15.6657 32.2845L15.9919 31.0712H22.8052L23.1313 32.2845C23.3347 33.0384 24.0185 33.5609 24.8005 33.5609H27.3217C27.8162 33.5609 28.2931 33.3645 28.6437 33.0138C31.8803 29.8193 33.9422 25.1765 33.9422 20.6565C33.9422 12.6229 27.4304 6.11108 19.3968 6.11108H19.4003Z" fill="#FFAFC4"/>
<path d="M7.87413 24.9696L3.07357 22.8341C2.38628 22.529 1.94444 21.8488 1.94444 21.0983V18.5315C1.94444 17.5847 2.71239 16.8168 3.65918 16.8168H7.87413V24.9732V24.9696Z" fill="#FFAFC4"/>
<path d="M14.5997 15.0845H6.55555L4.32885 10.5399C3.72922 9.31611 4.6199 7.88892 5.98047 7.88892H14.5997V15.081V15.0845Z" fill="#FFAFC4"/>
<path d="M23.282 10.7855C23.1523 10.7855 23.0191 10.7574 22.8963 10.6943C22.2511 10.3752 21.0974 9.99647 19.288 9.99647C18.8041 9.99647 18.4114 9.60373 18.4114 9.11982C18.4114 8.6359 18.8041 8.24316 19.288 8.24316C21.0133 8.24316 22.486 8.53772 23.6713 9.11982C24.1061 9.33372 24.2849 9.85971 24.071 10.2945C23.9203 10.6031 23.6082 10.7855 23.282 10.7855Z" fill="#CA3054"/>
<path d="M15.5185 10.7855C15.1958 10.7855 14.8838 10.6066 14.7295 10.2945C14.5156 9.85971 14.6944 9.33372 15.1292 9.11982C16.3145 8.53772 17.7872 8.24316 19.509 8.24316C19.9929 8.24316 20.3856 8.6359 20.3856 9.11982C20.3856 9.60373 19.9929 9.99647 19.509 9.99647C17.6996 9.99647 16.5494 10.3752 15.9007 10.6943C15.7779 10.7539 15.6447 10.7855 15.515 10.7855H15.5185Z" fill="#CA3054"/>
<path d="M33.5215 20.6178C32.8447 20.6178 32.2942 20.0673 32.2942 19.3905C32.2942 18.7137 32.8447 18.1632 33.5215 18.1632C34.6682 18.1632 35.6009 17.2304 35.6009 16.0838C35.6009 15.407 36.1514 14.8564 36.8282 14.8564C37.505 14.8564 38.0555 15.407 38.0555 16.0838C38.0555 18.584 36.0217 20.6178 33.5215 20.6178Z" fill="#FFAFC4"/>
<path d="M9.80642 18.104C8.8982 18.104 8.06714 17.6025 7.62881 16.7995C7.39737 16.3752 7.55868 15.8422 7.98298 15.6108C8.40728 15.3793 8.94028 15.5406 9.17172 15.9649C9.30146 16.2069 9.53991 16.3507 9.80642 16.3507C10.0729 16.3507 10.3079 16.2069 10.4411 15.9649C10.6725 15.5406 11.202 15.3793 11.6299 15.6108C12.0542 15.8422 12.2155 16.3717 11.984 16.7995C11.5492 17.606 10.7146 18.104 9.80642 18.104Z" fill="#070B32"/>
<path d="M36.0922 12.8282H28.8586C28.4091 12.8282 28.0045 12.563 27.8291 12.1494C27.6493 11.7403 27.7347 11.2593 28.0404 10.9356L33.4982 5.11819H28.8586C28.2382 5.11819 27.7347 4.61468 27.7347 3.99428C27.7347 3.37387 28.2382 2.87036 28.8586 2.87036H36.0922C36.5417 2.87036 36.9463 3.13561 37.1217 3.54921C37.3015 3.95831 37.2161 4.43935 36.9104 4.76303L31.4526 10.5804H36.0922C36.7126 10.5804 37.2161 11.0839 37.2161 11.7043C37.2161 12.3247 36.7126 12.8282 36.0922 12.8282Z" fill="#070B32"/>
</svg>
