<svg width="32" height="32" viewBox="0 0 32 32" fill="none" xmlns="http://www.w3.org/2000/svg">
<path d="M16.0004 20.387C14.3246 20.387 12.784 19.4611 11.978 17.969C11.7434 17.5354 11.9041 16.9946 12.3377 16.76C12.7713 16.5253 13.312 16.686 13.5467 17.1196C14.0415 18.0327 14.9801 18.6015 16.0004 18.6015C17.0206 18.6015 17.9593 18.0327 18.4515 17.1196C18.6862 16.686 19.2269 16.5228 19.6605 16.7574C20.0941 16.9921 20.2548 17.5328 20.0227 17.9664C19.2167 19.4586 17.6761 20.3844 16.0004 20.3844V20.387Z" fill="#0A2065"/>
<path d="M21.7803 27.2678H17.0642V25.4824H21.7803C23.1934 25.4824 24.3437 24.332 24.3437 22.919V12.4248C24.3437 7.82351 20.602 4.08174 16.0006 4.08174C11.3993 4.08174 7.65751 7.82351 7.65751 12.4248V19.8115H5.87207V12.4248C5.87207 6.83897 10.4147 2.2963 16.0006 2.2963C21.5865 2.2963 26.1292 6.83897 26.1292 12.4248V22.919C26.1292 25.3166 24.1779 27.2678 21.7803 27.2678Z" fill="#82C7F1"/>
<path d="M17.8146 24.286H14.185C13.0581 24.286 12.1445 25.1996 12.1445 26.3265C12.1445 27.4535 13.0581 28.367 14.185 28.367H17.8146C18.9415 28.367 19.8551 27.4535 19.8551 26.3265C19.8551 25.1996 18.9415 24.286 17.8146 24.286Z" fill="#3E7BF1"/>
<path d="M12.9062 15.3802C13.6105 15.3802 14.1815 14.8092 14.1815 14.1049C14.1815 13.4005 13.6105 12.8296 12.9062 12.8296C12.2018 12.8296 11.6309 13.4005 11.6309 14.1049C11.6309 14.8092 12.2018 15.3802 12.9062 15.3802Z" fill="#0A2065"/>
<path d="M19.0917 15.3802C19.7961 15.3802 20.367 14.8092 20.367 14.1049C20.367 13.4005 19.7961 12.8296 19.0917 12.8296C18.3874 12.8296 17.8164 13.4005 17.8164 14.1049C17.8164 14.8092 18.3874 15.3802 19.0917 15.3802Z" fill="#0A2065"/>
<path d="M25.5433 10.0706H26.2013C29.3615 10.0706 31.9275 12.6365 31.9275 15.7967C31.9275 18.957 29.3615 21.5229 26.2013 21.5229H25.5433C24.8775 21.5229 24.3394 20.9822 24.3394 20.319V11.2796C24.3394 10.6138 24.8801 10.0757 25.5433 10.0757V10.0706Z" fill="#3E7BF1"/>
<path d="M6.45968 21.5229H5.80161C2.64138 21.5229 0.0754509 18.957 0.0754509 15.7968C0.0754509 12.6366 2.64138 10.0706 5.80161 10.0706H6.45968C7.12284 10.0732 7.66357 10.6114 7.66357 11.2771L7.66357 20.3165C7.66357 20.9822 7.12284 21.5229 6.45968 21.5229Z" fill="#3E7BF1"/>
</svg>
