<svg width="24" height="25" viewBox="0 0 24 25" fill="none" xmlns="http://www.w3.org/2000/svg">
<path fill-rule="evenodd" clip-rule="evenodd" d="M7.2 5.5C5.98497 5.5 5 6.48497 5 7.7V17.3C5 18.515 5.98498 19.5 7.2 19.5H16.8C18.015 19.5 19 18.515 19 17.3V7.7C19 6.48498 18.015 5.5 16.8 5.5H7.2ZM3 7.7C3 5.3804 4.8804 3.5 7.2 3.5H16.8C19.1196 3.5 21 5.3804 21 7.7V17.3C21 19.6196 19.1196 21.5 16.8 21.5H7.2C4.8804 21.5 3 19.6196 3 17.3V7.7Z" fill="black"/>
<path fill-rule="evenodd" clip-rule="evenodd" d="M12.0009 9.94385C10.5895 9.94385 9.44531 11.088 9.44531 12.4994C9.44531 13.9108 10.5895 15.055 12.0009 15.055C13.4123 15.055 14.5564 13.9108 14.5564 12.4994C14.5564 11.088 13.4123 9.94385 12.0009 9.94385ZM7.44531 12.4994C7.44531 9.98344 9.4849 7.94385 12.0009 7.94385C14.5168 7.94385 16.5564 9.98344 16.5564 12.4994C16.5564 15.0154 14.5168 17.055 12.0009 17.055C9.4849 17.055 7.44531 15.0154 7.44531 12.4994Z" fill="black"/>
<path fill-rule="evenodd" clip-rule="evenodd" d="M16.8008 6.69971C17.3531 6.69971 17.8008 7.14742 17.8008 7.69971V7.71707C17.8008 8.26935 17.3531 8.71707 16.8008 8.71707C16.2485 8.71707 15.8008 8.26935 15.8008 7.71707V7.69971C15.8008 7.14742 16.2485 6.69971 16.8008 6.69971Z" fill="black"/>
</svg>
