<svg width="56" height="56" viewBox="0 0 56 56" fill="none" xmlns="http://www.w3.org/2000/svg">
<circle cx="28" cy="28" r="28" fill="#DDDDDD"/>
<path d="M34.6286 11.76H21.3714C16.3727 11.76 12.32 15.8127 12.32 20.8114V34.0686C12.32 39.0673 16.3727 43.12 21.3714 43.12H34.6286C39.6273 43.12 43.68 39.0673 43.68 34.0686V20.8114C43.6822 15.8127 39.6295 11.76 34.6286 11.76ZM40.7932 34.3018C40.7932 37.6195 38.104 40.3109 34.7841 40.3109H21.2159C17.8983 40.3109 15.2069 37.6217 15.2069 34.3018V20.7337C15.2069 17.416 17.8961 14.7246 21.2159 14.7246H34.7841C38.1017 14.7246 40.7932 17.4138 40.7932 20.7337V34.3018Z" fill="white"/>
<path d="M28 19.3812C23.5054 19.3812 19.8635 23.0253 19.8635 27.5177C19.8635 32.0101 23.5076 35.6541 28 35.6541C32.4924 35.6541 36.1364 32.0101 36.1364 27.5177C36.1364 23.0253 32.4924 19.3812 28 19.3812ZM28 32.7939C25.0865 32.7939 22.7259 30.4312 22.7259 27.5199C22.7259 24.6086 25.0887 22.2459 28 22.2459C30.9113 22.2459 33.274 24.6086 33.274 27.5199C33.274 30.4312 30.9113 32.7939 28 32.7939Z" fill="white"/>
<path d="M36.4096 20.969C37.4569 20.969 38.306 20.12 38.306 19.0726C38.306 18.0252 37.4569 17.1761 36.4096 17.1761C35.3622 17.1761 34.5131 18.0252 34.5131 19.0726C34.5131 20.12 35.3622 20.969 36.4096 20.969Z" fill="white"/>
</svg>
