<svg width="56" height="56" viewBox="0 0 56 56" fill="none" xmlns="http://www.w3.org/2000/svg">
<circle cx="28" cy="28" r="28" fill="#DDDDDD"/>
<g clip-path="url(#clip0_227_6438)">
<path d="M39.493 14.6384H16.507C13.5749 14.6384 11.2 17.0408 11.2 20.0035V32.7308C11.2 35.6934 13.5749 38.0958 16.507 38.0958H24.4244L27.127 42.528C27.127 42.528 27.1554 42.5804 27.2152 42.6535C27.3732 42.9262 27.6645 43.112 28 43.112C28.3355 43.112 28.6239 42.9292 28.7828 42.6594C28.8505 42.5794 28.8741 42.527 28.8741 42.527L31.5756 38.0948H39.494C42.4241 38.0948 44.801 35.6925 44.801 32.7298V20.0035C44.801 17.0408 42.4241 14.6384 39.494 14.6384" fill="white"/>
<path d="M18.6622 23.9642C18.6622 23.9642 17.745 23.9642 16.9132 24.7795V21.4937H14.8561V30.1277H16.9347V29.4518C16.9347 29.4518 17.4252 30.3442 18.6622 30.3442C18.6622 30.3442 21.561 30.2364 21.561 27.1226C21.561 27.1226 21.454 23.9652 18.6622 23.9652M18.209 28.5219C17.4792 28.5219 16.8867 27.925 16.8867 27.1898C16.8867 26.4545 17.4792 25.8586 18.209 25.8586C18.9389 25.8586 19.5304 26.4545 19.5304 27.1898C19.5304 27.925 18.9379 28.5219 18.209 28.5219Z" fill="#DDDDDD"/>
<path d="M22.2221 21.301V23.2982C22.2221 23.2982 23.1609 23.2557 23.1609 25.0167V30.1278H25.1434V24.5444C25.1434 24.5444 25.2288 21.301 22.2221 21.301Z" fill="#DDDDDD"/>
<path d="M29.9914 23.991C29.9914 23.991 26.5933 23.991 26.5933 27.1888C26.5933 27.1888 26.4835 30.3432 29.9914 30.3432C29.9914 30.3432 33.4689 30.3383 33.4689 27.1888C33.4689 27.1888 33.5827 23.991 29.9914 23.991ZM29.9914 28.521C29.2616 28.521 28.6691 27.9241 28.6691 27.1888C28.6691 26.4536 29.2616 25.8577 29.9914 25.8577C30.7212 25.8577 31.3128 26.4536 31.3128 27.1888C31.3128 27.9241 30.7203 28.521 29.9914 28.521Z" fill="#DDDDDD"/>
<path d="M39.1447 24.2005V24.7796C39.1447 24.7796 38.5532 23.991 37.4182 23.991C37.4182 23.991 34.5077 23.8674 34.5077 27.1671C34.5077 27.1671 34.4753 30.2414 37.3378 30.2414C37.3378 30.2414 38.5051 30.2899 39.1437 29.4519V29.9361C39.1437 29.9361 39.2879 31.45 37.8322 31.45H37.3368V33.2862H38.1363C38.1363 33.2862 41.142 33.3188 41.142 30.0487V24.2014H39.1428L39.1447 24.2005ZM37.9156 28.521C37.1857 28.521 36.5942 27.9241 36.5942 27.1888C36.5942 26.4536 37.1857 25.8577 37.9156 25.8577C38.6454 25.8577 39.2369 26.4536 39.2369 27.1888C39.2369 27.9241 38.6444 28.521 37.9156 28.521Z" fill="#DDDDDD"/>
</g>
<defs>
<clipPath id="clip0_227_6438">
<rect width="33.6" height="28.4746" fill="white" transform="translate(11.2 14.6384)"/>
</clipPath>
</defs>
</svg>
