<svg width="24" height="25" viewBox="0 0 24 25" fill="none" xmlns="http://www.w3.org/2000/svg">
<path fill-rule="evenodd" clip-rule="evenodd" d="M19.5246 3.5H4.47473C2.55496 3.5 1 5.07293 1 7.01273V15.3458C1 17.2856 2.55496 18.8586 4.47473 18.8586H9.65857L11.4281 21.7605C11.4281 21.7605 11.4467 21.7948 11.4859 21.8427C11.5893 22.0212 11.78 22.1429 11.9997 22.1429C12.2193 22.1429 12.4082 22.0232 12.5122 21.8465C12.5565 21.7941 12.5719 21.7598 12.5719 21.7598L14.3408 18.8579H19.5253C21.4438 18.8579 23 17.285 23 15.3452V7.01273C23 5.07293 21.4438 3.5 19.5253 3.5H19.5246ZM5.8856 9.60598C5.8856 9.60598 5.28507 9.60598 4.74041 10.1398V7.9884H3.39355V13.6415H4.75454V13.1989C4.75454 13.1989 5.07568 13.7832 5.8856 13.7832C5.8856 13.7832 7.78354 13.7127 7.78354 11.6739C7.78354 11.6739 7.71353 9.60663 5.8856 9.60663V9.60598ZM5.58887 12.5901C5.11101 12.5901 4.72307 12.1993 4.72307 11.7179C4.72307 11.2365 5.11101 10.8463 5.58887 10.8463C6.06672 10.8463 6.45402 11.2365 6.45402 11.7179C6.45402 12.1993 6.06608 12.5901 5.58887 12.5901ZM8.2168 9.16995V7.8623C10.1854 7.8623 10.1295 9.98586 10.1295 9.98586V13.6416H8.83146V10.2951C8.83146 9.14213 8.2168 9.16995 8.2168 9.16995ZM13.3032 9.62354C13.3032 9.62354 11.0784 9.62354 11.0784 11.7173C11.0784 11.7173 11.0064 13.7826 13.3032 13.7826C13.3032 13.7826 15.5801 13.7794 15.5801 11.7173C15.5801 11.7173 15.6546 9.62354 13.3032 9.62354ZM13.3032 12.5895C12.8254 12.5895 12.4374 12.1987 12.4374 11.7173C12.4374 11.2359 12.8254 10.8458 13.3032 10.8458C13.7811 10.8458 14.1684 11.2359 14.1684 11.7173C14.1684 12.1987 13.7804 12.5895 13.3032 12.5895ZM19.2968 9.76126V9.76061L19.2955 9.76126H19.2968ZM19.2968 10.1398V9.76126H20.6045V13.5897C20.6045 15.7308 18.6365 15.7094 18.6365 15.7094H18.1131V14.5072H18.4374C19.3906 14.5072 19.2962 13.516 19.2962 13.516V13.1989C18.878 13.7476 18.1137 13.7159 18.1137 13.7159C16.2396 13.7159 16.2608 11.703 16.2608 11.703C16.2608 9.54256 18.1664 9.62344 18.1664 9.62344C18.9095 9.62344 19.2968 10.1398 19.2968 10.1398ZM17.6269 11.7172C17.6269 12.1986 18.0142 12.5894 18.492 12.5894C18.9692 12.5894 19.3572 12.1986 19.3572 11.7172C19.3572 11.2358 18.9699 10.8457 18.492 10.8457C18.0142 10.8457 17.6269 11.2358 17.6269 11.7172Z" fill="black"/>
</svg>
