<svg width="56" height="56" viewBox="0 0 56 56" fill="none" xmlns="http://www.w3.org/2000/svg">
<circle cx="28" cy="28" r="28" fill="#ED3023"/>
<path fill-rule="evenodd" clip-rule="evenodd" d="M41.1182 18.8792C41.5724 19.3475 41.895 19.9273 42.0534 20.56C42.4764 22.905 42.6817 25.284 42.6667 27.6667C42.6751 30.0138 42.4699 32.3568 42.0534 34.6667C41.895 35.2995 41.5724 35.8793 41.1182 36.3475C40.6641 36.8157 40.0944 37.1558 39.4667 37.3334C37.1734 37.9467 28 37.9467 28 37.9467C28 37.9467 18.8267 37.9467 16.5334 37.3334C15.9185 37.1651 15.3573 36.8411 14.9042 36.3927C14.4511 35.9442 14.1213 35.3865 13.9467 34.7734C13.5237 32.4284 13.3184 30.0494 13.3334 27.6667C13.3217 25.3018 13.527 22.9408 13.9467 20.6134C14.1051 19.9806 14.4277 19.4008 14.8818 18.9326C15.336 18.4644 15.9057 18.1243 16.5334 17.9467C18.8267 17.3334 28 17.3334 28 17.3334C28 17.3334 37.1734 17.3334 39.4667 17.8934C40.0944 18.071 40.6641 18.411 41.1182 18.8792ZM32.6667 27.6667L25 32.0267V23.3067L32.6667 27.6667Z" fill="white"/>
</svg>
