<svg width="24" height="25" viewBox="0 0 24 25" fill="none" xmlns="http://www.w3.org/2000/svg">
<path fill-rule="evenodd" clip-rule="evenodd" d="M21.0186 6.22929C21.3309 6.55119 21.5527 6.9498 21.6615 7.38484C21.9523 8.99698 22.0935 10.6325 22.0832 12.2707C22.089 13.8843 21.9479 15.4951 21.6615 17.0832C21.5527 17.5182 21.3309 17.9168 21.0186 18.2387C20.7064 18.5606 20.3147 18.7944 19.8832 18.9165C18.3065 19.3382 11.9999 19.3382 11.9999 19.3382C11.9999 19.3382 5.69321 19.3382 4.11654 18.9165C3.69379 18.8008 3.30802 18.5781 2.9965 18.2698C2.68499 17.9615 2.45825 17.578 2.33821 17.1565C2.04741 15.5444 1.90625 13.9088 1.91654 12.2707C1.90851 10.6448 2.04965 9.0216 2.33821 7.4215C2.4471 6.98646 2.66886 6.58786 2.98111 6.26596C3.29335 5.94406 3.68502 5.71026 4.11654 5.58817C5.69321 5.1665 11.9999 5.1665 11.9999 5.1665C11.9999 5.1665 18.3065 5.1665 19.8832 5.5515C20.3147 5.67359 20.7064 5.90739 21.0186 6.22929ZM15.2082 12.2707L9.93735 15.2682V9.27315L15.2082 12.2707Z" fill="black"/>
</svg>
